<?xml version="1.0" encoding="UTF-8"?>
<svg id="Layer_1" data-name="Layer 1" xmlns="http://www.w3.org/2000/svg" xmlns:xlink="http://www.w3.org/1999/xlink" viewBox="0 0 1080 241.78">
  <defs>
    <style>
      .cls-1 {
        fill: url(#linear-gradient);
      }

      .cls-1, .cls-2, .cls-3 {
        stroke-width: 0px;
      }

      .cls-2 {
        fill: #e1e1e0;
      }

      .cls-3 {
        fill: url(#linear-gradient-2);
      }
    </style>
    <linearGradient id="linear-gradient" x1="817.62" y1="115.25" x2="1075.74" y2="115.25" gradientUnits="userSpaceOnUse">
      <stop offset="0" stop-color="#ab40f2"/>
      <stop offset=".11" stop-color="#7b40f2"/>
      <stop offset=".29" stop-color="#4058f2"/>
      <stop offset=".81" stop-color="#409ff2"/>
      <stop offset="1" stop-color="#409ff2"/>
    </linearGradient>
    <linearGradient id="linear-gradient-2" x1="815.76" y1="115.25" x2="1076.09" y2="115.25" gradientUnits="userSpaceOnUse">
      <stop offset="0" stop-color="#ab40f2"/>
      <stop offset=".69" stop-color="#7b40f2"/>
      <stop offset=".81" stop-color="#4058f2"/>
      <stop offset=".92" stop-color="#409ff2"/>
      <stop offset="1" stop-color="#409ff2"/>
    </linearGradient>
  </defs>
  <path class="cls-2" d="m89.88,77.67c6.39-3.16,13.48-4.75,21.26-4.75,11.87,0,21.46,3.89,28.78,11.67,7.32,7.78,10.98,18.33,10.98,31.65,0,4.09-.4,8.5-1.19,13.25-1.98,11.34-5.87,21.33-11.67,29.97-5.8,8.64-12.79,15.3-20.97,19.98-8.18,4.68-16.81,7.02-25.91,7.02-7.65,0-14.11-1.58-19.38-4.75-5.28-3.16-9.17-7.25-11.67-12.26l-12.07,68.04H14.22l28.68-162.98h33.82l-2.77,15.63c4.22-5.14,9.52-9.3,15.92-12.46Zm26.21,45.69c0-6.59-1.88-11.73-5.64-15.43-3.76-3.69-8.54-5.54-14.34-5.54-6.73,0-12.86,2.44-18.39,7.32-5.54,4.88-9.1,11.54-10.68,19.98-.4,2.37-.59,4.55-.59,6.53,0,6.46,1.85,11.54,5.54,15.23,3.69,3.69,8.44,5.54,14.24,5.54,6.72,0,12.89-2.47,18.49-7.42,5.6-4.94,9.2-11.64,10.78-20.08.4-2.24.59-4.28.59-6.13Z"/>
  <path class="cls-2" d="m221.21,78.96c6.66-3.76,13.61-5.64,20.87-5.64l-6.33,35.8h-9.3c-8.44,0-15.1,1.81-19.98,5.44-4.88,3.63-8.11,9.99-9.69,19.09l-9.1,51.23h-33.82l19.38-110.37h33.82l-3.56,19.98c5.14-6.59,11.04-11.77,17.7-15.53Z"/>
  <path class="cls-2" d="m263.63,180.72c-7.39-3.82-13.09-9.23-17.11-16.22-4.02-6.99-6.03-15.1-6.03-24.33,0-12.53,2.97-23.93,8.9-34.22,5.93-10.29,14.11-18.36,24.53-24.23,10.42-5.87,22.02-8.8,34.81-8.8,9.49,0,17.97,1.95,25.42,5.84,7.45,3.89,13.22,9.33,17.31,16.32,4.09,6.99,6.13,15.1,6.13,24.33,0,12.66-3,24.1-9,34.32-6,10.22-14.24,18.23-24.72,24.03-10.48,5.8-22.12,8.7-34.91,8.7-9.49,0-17.93-1.91-25.32-5.74Zm45-28.38c4.42-3.36,7.84-7.71,10.29-13.05,2.44-5.34,3.66-10.91,3.66-16.71,0-6.59-1.78-11.67-5.34-15.23-3.56-3.56-8.04-5.34-13.45-5.34-5.67,0-10.65,1.68-14.93,5.04-4.29,3.36-7.62,7.75-9.99,13.15-2.37,5.41-3.56,11.08-3.56,17.01,0,6.46,1.71,11.44,5.14,14.93,3.43,3.5,7.84,5.24,13.25,5.24s10.51-1.68,14.93-5.04Z"/>
  <path class="cls-2" d="m406.44,146.9c-.13.66-.2,1.52-.2,2.57,0,2.37.69,4.09,2.08,5.14,1.38,1.06,3.66,1.58,6.82,1.58h12.07l-5.14,28.68h-17.21c-22.15,0-33.23-9.3-33.23-27.89,0-2.77.33-6.26.99-10.48l7.91-43.91h-13.45l4.94-28.09h13.45l4.75-26.9h33.82l-4.75,26.9h22.15l-4.94,28.09h-22.15l-7.91,44.31Z"/>
  <path class="cls-2" d="m461.26,180.72c-7.39-3.82-13.09-9.23-17.11-16.22-4.02-6.99-6.03-15.1-6.03-24.33,0-12.53,2.97-23.93,8.9-34.22,5.93-10.29,14.11-18.36,24.53-24.23,10.42-5.87,22.02-8.8,34.81-8.8,9.49,0,17.97,1.95,25.42,5.84,7.45,3.89,13.22,9.33,17.31,16.32,4.09,6.99,6.13,15.1,6.13,24.33,0,12.66-3,24.1-9,34.32-6,10.22-14.24,18.23-24.72,24.03-10.48,5.8-22.12,8.7-34.91,8.7-9.49,0-17.93-1.91-25.32-5.74Zm45-28.38c4.42-3.36,7.84-7.71,10.29-13.05,2.44-5.34,3.66-10.91,3.66-16.71,0-6.59-1.78-11.67-5.34-15.23-3.56-3.56-8.04-5.34-13.45-5.34-5.67,0-10.65,1.68-14.93,5.04-4.29,3.36-7.62,7.75-9.99,13.15-2.37,5.41-3.56,11.08-3.56,17.01,0,6.46,1.71,11.44,5.14,14.93,3.43,3.5,7.84,5.24,13.25,5.24s10.51-1.68,14.93-5.04Z"/>
  <path class="cls-2" d="m621.92,61.45c-2.97,2.24-4.98,6.26-6.03,12.07l-.2.99h18.2l-4.94,28.09h-18.2l-14.44,82.28h-34.02l14.44-82.28h-12.26l4.94-28.09h12.26l.59-3.16c2.5-13.58,8.27-23.9,17.31-30.95,9.03-7.05,21.07-10.58,36.1-10.58,2.37,0,4.15.07,5.34.2l-4.94,28.68c-6.46-.4-11.17.53-14.14,2.77Z"/>
  <path class="cls-2" d="m691.71,38.51l-25.91,146.36h-33.82l25.91-146.36h33.82Z"/>
  <path class="cls-2" d="m814.16,74.51l-19.38,110.37h-33.82l2.57-15.03c-4.35,4.88-9.66,8.8-15.92,11.77-6.26,2.97-12.96,4.45-20.08,4.45-11.08,0-19.78-3.13-26.11-9.39-6.33-6.26-9.49-15-9.49-26.21,0-4.22.33-8.04.99-11.47l11.47-64.48h33.62l-10.48,59.93c-.4,2.11-.59,4.15-.59,6.13,0,5.54,1.55,9.79,4.65,12.76,3.1,2.97,7.42,4.45,12.96,4.45,6.33,0,11.7-1.88,16.12-5.64,4.42-3.76,7.35-9.13,8.8-16.12l10.88-61.51h33.82Z"/>
  <path class="cls-2" d="m957.6,130.28l28.28,54.59h-37.98l-15.82-30.46-23.14,30.46h-36.59l46.28-56.37-27.89-54h37.98l15.82,30.66,23.14-30.66h36.59l-46.68,55.78Z"/>
  <path class="cls-1" d="m823.75,192.79c-4.09-13.18-6.13-27.62-6.13-43.32,0-18.06,2.64-36.23,7.91-54.49,5.27-18.26,12.82-35.31,22.65-51.13,9.82-15.82,21.33-29.01,34.51-39.56h33.43l-.59,3.16c-13.05,10.95-24.46,23.83-34.22,38.67-9.76,14.83-17.31,30.69-22.65,47.57-5.34,16.88-8.01,33.69-8.01,50.44,0,15.17,2.14,29.5,6.43,43.02,4.28,13.51,10.51,25.48,18.69,35.9l-.59,3.16h-33.43c-7.91-9.1-13.91-20.24-18-33.43Z"/>
  <path class="cls-3" d="m969.45,226.21l.59-3.16c12.79-11.21,23.9-24.16,33.33-38.87,9.43-14.7,16.71-30.29,21.86-46.78,5.14-16.48,7.71-32.9,7.71-49.25s-2.27-30.26-6.82-44.11c-4.55-13.85-11.24-26.04-20.08-36.59l.59-3.16h33.43c8.44,9.23,14.83,20.64,19.19,34.22,4.35,13.58,6.53,28.42,6.53,44.5,0,17.67-2.54,35.5-7.61,53.5-5.08,18-12.36,34.84-21.86,50.53-9.49,15.69-20.64,28.74-33.43,39.16h-33.43Z"/>
</svg>